<?xml version="1.0" encoding="utf-8"?>
<!-- Generator: Adobe Illustrator 27.0.1, SVG Export Plug-In . SVG Version: 6.00 Build 0)  -->
<svg version="1.1" id="Layer_1" xmlns="http://www.w3.org/2000/svg" xmlns:xlink="http://www.w3.org/1999/xlink" x="0px" y="0px"
	 viewBox="0 0 300 300" style="enable-background:new 0 0 300 300;" xml:space="preserve">
<style type="text/css">
	.st0{filter:url(#filter-2);}
	.st1{fill-rule:evenodd;clip-rule:evenodd;fill:url(#SVGID_1_);}
	.st2{filter:url(#filter-4);}
	.st3{fill-rule:evenodd;clip-rule:evenodd;fill:url(#SVGID_00000112625854040215135740000000877045597889657483_);}
	.st4{filter:url(#filter-6);}
	.st5{fill-rule:evenodd;clip-rule:evenodd;fill:url(#SVGID_00000000913280162369762720000003105294511708523655_);}
	.st6{filter:url(#filter-8);}
	.st7{fill-rule:evenodd;clip-rule:evenodd;fill:url(#SVGID_00000183213664326238491760000008790483905066370450_);}
	.st8{filter:url(#filter-11);}
	.st9{fill-rule:evenodd;clip-rule:evenodd;}
	
		.st10{fill-rule:evenodd;clip-rule:evenodd;fill:url(#path-10_00000115515295679361441220000003205160840610934191_);stroke:#FFFFFF;stroke-opacity:0.3975;}
	.st11{fill:url(#Shape_00000153685009407880658070000008621104868152740745_);}
	.st12{fill:url(#Oval_00000167385521037713834950000005085792950792102812_);}
</style>
<filter  filterUnits="objectBoundingBox" height="143.6%" id="filter-8" width="143.6%" x="-21.8%" y="-21.8%">
	<feGaussianBlur  in="SourceGraphic" stdDeviation="12"></feGaussianBlur>
</filter>
<filter  filterUnits="objectBoundingBox" height="143.6%" id="filter-6" width="143.6%" x="-21.8%" y="-21.8%">
	<feGaussianBlur  in="SourceGraphic" stdDeviation="12"></feGaussianBlur>
</filter>
<filter  filterUnits="objectBoundingBox" height="143.6%" id="filter-4" width="143.6%" x="-21.8%" y="-21.8%">
	<feGaussianBlur  in="SourceGraphic" stdDeviation="12"></feGaussianBlur>
</filter>
<filter  filterUnits="objectBoundingBox" height="145.3%" id="filter-2" width="143.6%" x="-21.8%" y="-22.6%">
	<feGaussianBlur  in="SourceGraphic" stdDeviation="12"></feGaussianBlur>
</filter>
<filter  filterUnits="objectBoundingBox" height="111.7%" id="filter-11" width="111.7%" x="-5.5%" y="-5.5%">
	<feMorphology  in="SourceAlpha" operator="dilate" radius="0.5" result="shadowSpreadOuter1"></feMorphology>
	<feOffset  dx="1" dy="1" in="shadowSpreadOuter1" result="shadowOffsetOuter1"></feOffset>
	<feGaussianBlur  in="shadowOffsetOuter1" result="shadowBlurOuter1" stdDeviation="5.5"></feGaussianBlur>
	<feComposite  in="shadowBlurOuter1" in2="SourceAlpha" operator="out" result="shadowBlurOuter1"></feComposite>
	<feColorMatrix  in="shadowBlurOuter1" type="matrix" values="0 0 0 0 1   0 0 0 0 1   0 0 0 0 1  0 0 0 0.414909309 0">
		</feColorMatrix>
</filter>
<g id="react-logo">
	<g id="Rectangle" class="st0">
		
			<linearGradient id="SVGID_1_" gradientUnits="userSpaceOnUse" x1="-804.6118" y1="697.5126" x2="-805.6118" y2="697.5126" gradientTransform="matrix(165 0 0 -159 132911 110975)">
			<stop  offset="0" style="stop-color:#BD6D5E"/>
			<stop  offset="0.4777" style="stop-color:#DF9139"/>
			<stop  offset="1" style="stop-color:#C9816F"/>
		</linearGradient>
		<rect x="-14.9" y="-9" class="st1" width="165" height="159"/>
	</g>
	<g id="Rectangle_00000066510807788025668710000018124637370393122720_" class="st2">
		
			<linearGradient id="SVGID_00000001627947146184131770000018108731363454630806_" gradientUnits="userSpaceOnUse" x1="-805.1118" y1="698.0848" x2="-805.1118" y2="697.0848" gradientTransform="matrix(165 0 0 -165 132911 115327)">
			<stop  offset="0" style="stop-color:#C9816F"/>
			<stop  offset="1" style="stop-color:#B32257"/>
			<stop  offset="1" style="stop-color:#D2A08E"/>
		</linearGradient>
		
			<rect x="-14.9" y="143" style="fill-rule:evenodd;clip-rule:evenodd;fill:url(#SVGID_00000001627947146184131770000018108731363454630806_);" width="165" height="165"/>
	</g>
	<g id="Rectangle_00000040563992373114804840000013086779331784463237_" class="st4">
		
			<linearGradient id="SVGID_00000176039176748882670260000009270005444327886230_" gradientUnits="userSpaceOnUse" x1="-804.6118" y1="697.5848" x2="-805.6118" y2="697.5848" gradientTransform="matrix(165 0 0 -165 133076 115327)">
			<stop  offset="0" style="stop-color:#61529C"/>
			<stop  offset="1" style="stop-color:#861C77"/>
		</linearGradient>
		
			<rect x="150.1" y="143" style="fill-rule:evenodd;clip-rule:evenodd;fill:url(#SVGID_00000176039176748882670260000009270005444327886230_);" width="165" height="165"/>
	</g>
	<g id="Rectangle_00000127726756850494383880000008344522381254776711_" class="st6">
		
			<linearGradient id="SVGID_00000043441973603530626740000000774671671125257628_" gradientUnits="userSpaceOnUse" x1="-804.6118" y1="697.5848" x2="-805.6118" y2="697.5848" gradientTransform="matrix(165 0 0 -165 133076 115175)">
			<stop  offset="0" style="stop-color:#1B89C7"/>
			<stop  offset="0.9999" style="stop-color:#568697"/>
		</linearGradient>
		
			<rect x="150.1" y="-9" style="fill-rule:evenodd;clip-rule:evenodd;fill:url(#SVGID_00000043441973603530626740000000774671671125257628_);" width="165" height="165"/>
	</g>
	<g id="Rectangle_00000137854945449531893930000018094632165861469877_">
		<g class="st8">
			<rect id="path-10_00000025413010852740726440000011510599814477149618_" x="0.1" class="st9" width="300" height="300"/>
		</g>
		<g>
			
				<linearGradient id="path-10_00000111873896636624746440000002239076509015204769_" gradientUnits="userSpaceOnUse" x1="-807.1365" y1="698.9467" x2="-806.1365" y2="697.9467" gradientTransform="matrix(300 0 0 -300 242141 209684)">
				<stop  offset="0" style="stop-color:#19181D"/>
				<stop  offset="1" style="stop-color:#000000"/>
			</linearGradient>
			
				<rect id="path-10_00000111912984069379590010000010417403859604492184_" x="0.1" style="fill-rule:evenodd;clip-rule:evenodd;fill:url(#path-10_00000111873896636624746440000002239076509015204769_);stroke:#FFFFFF;stroke-opacity:0.3975;" width="300" height="300"/>
		</g>
	</g>
	<g id="React-icon-_x28_1_x29_" transform="translate(276.000000, 103.000000)">
		
			<linearGradient id="Shape_00000094596338481703457490000011224675764576738728_" gradientUnits="userSpaceOnUse" x1="-1082.2457" y1="595.5701" x2="-1082.2457" y2="594.5701" gradientTransform="matrix(248 0 0 -221 268271 131557)">
			<stop  offset="0" style="stop-color:#9AEFFD"/>
			<stop  offset="1" style="stop-color:#61DAFB"/>
		</linearGradient>
		<path id="Shape" style="fill:url(#Shape_00000094596338481703457490000011224675764576738728_);" d="M-1.9,46.5
			c0-16.4-20.6-32-52.1-41.7c7.3-32.2,4-57.8-10.2-66c-3.3-1.9-7.1-2.8-11.3-2.8v11.3c2.3,0,4.2,0.5,5.8,1.3
			c6.9,3.9,9.9,19,7.5,38.3c-0.6,4.8-1.5,9.8-2.6,14.9C-74.8-0.6-85.6-2.5-97-3.7c-6.8-9.4-13.9-17.9-21-25.3
			c16.5-15.3,31.9-23.7,42.5-23.7V-64l0,0c-13.9,0-32.1,9.9-50.5,27.1c-18.4-17.1-36.6-26.9-50.5-26.9v11.3c10.5,0,26,8.3,42.5,23.6
			c-7.1,7.4-14.2,15.9-20.9,25.2c-11.4,1.2-22.2,3.1-32.2,5.6c-1.2-5.1-2-10-2.6-14.7c-2.4-19.3,0.6-34.3,7.4-38.3
			c1.5-0.9,3.5-1.3,5.8-1.3v-11.3l0,0c-4.2,0-8.1,0.9-11.4,2.8c-14.2,8.2-17.4,33.7-10.1,65.8c-31.4,9.7-51.9,25.2-51.9,41.6
			c0,16.4,20.6,32,52.1,41.7c-7.3,32.2-4,57.8,10.2,66c3.3,1.9,7.1,2.8,11.4,2.8c13.9,0,32.1-9.9,50.5-27.1
			c18.4,17.1,36.6,26.9,50.5,26.9c4.2,0,8.1-0.9,11.4-2.8c14.2-8.2,17.4-33.7,10.1-65.8C-22.4,78.5-1.9,62.9-1.9,46.5z M-67.8,12.8
			c-1.9,6.5-4.2,13.3-6.8,20c-2.1-4-4.2-8.1-6.6-12.1c-2.3-4-4.8-8-7.3-11.8C-81.3,9.9-74.4,11.2-67.8,12.8z M-90.9,66.7
			c-3.9,6.8-8,13.3-12.2,19.3c-7.5,0.7-15.2,1-22.8,1c-7.6,0-15.3-0.4-22.7-1c-4.2-6-8.3-12.4-12.2-19.2
			c-3.8-6.6-7.3-13.4-10.5-20.1c3.1-6.8,6.7-13.6,10.5-20.2c3.9-6.8,8-13.3,12.2-19.3c7.5-0.7,15.2-1,22.8-1c7.6,0,15.3,0.4,22.7,1
			c4.2,6,8.3,12.4,12.2,19.2c3.8,6.6,7.3,13.4,10.5,20.1C-83.6,53.3-87.1,60-90.9,66.7z M-74.6,60.1c2.7,6.8,5.1,13.6,7,20.1
			c-6.6,1.6-13.6,3-20.8,4c2.5-3.9,5-7.9,7.3-12C-78.8,68.2-76.7,64.1-74.6,60.1z M-125.8,114.1c-4.7-4.9-9.4-10.3-14.1-16.2
			c4.5,0.2,9.2,0.4,13.9,0.4c4.8,0,9.5-0.1,14.1-0.4C-116.5,103.8-121.2,109.2-125.8,114.1z M-163.5,84.3c-7.2-1.1-14.1-2.4-20.7-4
			c1.9-6.5,4.2-13.3,6.8-20c2.1,4,4.2,8.1,6.6,12.1C-168.4,76.5-165.9,80.4-163.5,84.3z M-126.1-21c4.7,4.9,9.4,10.3,14.1,16.2
			c-4.5-0.2-9.2-0.4-13.9-0.4c-4.8,0-9.5,0.1-14.1,0.4C-135.5-10.7-130.8-16.1-126.1-21z M-163.5,8.8c-2.5,3.9-5,7.9-7.3,12
			c-2.3,4-4.5,8.1-6.6,12.1c-2.7-6.8-5.1-13.6-7-20.1C-177.7,11.2-170.7,9.9-163.5,8.8z M-209.3,72.1c-17.9-7.6-29.5-17.7-29.5-25.6
			s11.6-18,29.5-25.6c4.3-1.9,9.1-3.5,14-5.1c2.9,9.9,6.7,20.2,11.4,30.8c-4.7,10.5-8.4,20.8-11.2,30.7
			C-200.1,75.7-204.9,74-209.3,72.1z M-182.1,144.4c-6.9-3.9-9.9-19-7.5-38.3c0.6-4.8,1.5-9.8,2.6-14.9c9.9,2.4,20.7,4.3,32.1,5.5
			c6.8,9.4,13.9,17.9,21,25.3c-16.5,15.3-31.9,23.7-42.5,23.7C-178.6,145.7-180.5,145.3-182.1,144.4z M-62.2,105.9
			c2.4,19.3-0.6,34.3-7.4,38.3c-1.5,0.9-3.5,1.3-5.8,1.3c-10.5,0-26-8.3-42.5-23.6c7.1-7.4,14.2-15.9,20.9-25.2
			c11.4-1.2,22.2-3.1,32.2-5.6C-63.6,96.2-62.7,101.2-62.2,105.9z M-42.7,72.1c-4.3,1.9-9.1,3.5-14,5.1c-2.9-9.9-6.7-20.2-11.4-30.8
			c4.7-10.5,8.4-20.8,11.2-30.7c5,1.6,9.8,3.3,14.2,5.2c17.9,7.6,29.5,17.7,29.5,25.6C-13.2,54.5-24.8,64.5-42.7,72.1z"/>
		
			<linearGradient id="Oval_00000079486417399834524060000011999871956424595637_" gradientUnits="userSpaceOnUse" x1="-1072.3467" y1="590.1304" x2="-1072.3467" y2="589.1304" gradientTransform="matrix(46 0 0 -46 49201 27170)">
			<stop  offset="0" style="stop-color:#9AEFFD"/>
			<stop  offset="1" style="stop-color:#61DAFB"/>
		</linearGradient>
		<circle id="Oval" style="fill:url(#Oval_00000079486417399834524060000011999871956424595637_);" cx="-126.9" cy="47" r="23"/>
	</g>
</g>
</svg>
